<?xml version="1.0" encoding="UTF-8"?>
<svg id="Mask" xmlns="http://www.w3.org/2000/svg" xmlns:xlink="http://www.w3.org/1999/xlink" viewBox="0 0 2051.91 2051.91">
  <defs>
    <style>
      .cls-1 {
        fill: #a82464;
      }

      .cls-2 {
        fill: #e4243b;
        filter: url(#drop-shadow-3);
      }

      .cls-3 {
        fill: #672491;
        filter: url(#drop-shadow-2);
      }

      .cls-4 {
        clip-path: url(#clippath);
      }

      .cls-5 {
        fill: #f47517;
        filter: url(#drop-shadow-1);
      }
    </style>
    <clipPath id="clippath">
      <polygon class="cls-1" points="1235.7 409.93 812.3 409.93 555.22 1060.8 918.85 805.29 1036.84 990.35 406.2 1438.07 327.21 1638.07 736.59 1638.07 1179.62 1316.62 1303 1638.07 1720.79 1638.07 1235.7 409.93"/>
    </clipPath>
    <filter id="drop-shadow-1" filterUnits="userSpaceOnUse">
      <feOffset dx="7" dy="7"/>
      <feGaussianBlur result="blur" stdDeviation="15"/>
      <feFlood flood-color="#000" flood-opacity="1"/>
      <feComposite in2="blur" operator="in"/>
      <feComposite in="SourceGraphic"/>
    </filter>
    <filter id="drop-shadow-2" filterUnits="userSpaceOnUse">
      <feOffset dx="7" dy="7"/>
      <feGaussianBlur result="blur-2" stdDeviation="15"/>
      <feFlood flood-color="#000" flood-opacity="1"/>
      <feComposite in2="blur-2" operator="in"/>
      <feComposite in="SourceGraphic"/>
    </filter>
    <filter id="drop-shadow-3" filterUnits="userSpaceOnUse">
      <feOffset dx="7" dy="7"/>
      <feGaussianBlur result="blur-3" stdDeviation="15"/>
      <feFlood flood-color="#000" flood-opacity="1"/>
      <feComposite in2="blur-3" operator="in"/>
      <feComposite in="SourceGraphic"/>
    </filter>
  </defs>
  <polygon class="cls-1" points="1235.7 409.93 812.3 409.93 555.22 1060.8 918.85 805.29 1036.84 990.35 406.2 1438.07 327.21 1638.07 736.59 1638.07 1179.62 1316.62 1303 1638.07 1720.79 1638.07 1235.7 409.93"/>
  <g class="cls-4">
    <path class="cls-5" d="m1190.84,1472.64c-37.56-27-333.97-360.2-364.52-703.8-28.39-319.31,199.96-419.43,232.73-457.05l370.13,98.14,361.71,1247.78h-524.35l-75.71-185.06Z"/>
    <path class="cls-3" d="m1188.03,1590.41c-27.18-19.89-55.21-39.54-84.12-58.88-246.72-165.09-498.71-268.63-731.84-333.67l-227.12,490.7,785.12,70.1,257.97-168.24Z"/>
    <path class="cls-2" d="m661.63,1638.07c25.66-199.08,78.94-266.38,364.78-417.79,260.64-138.07,216.3-287.76,148.78-395.36-179.46-286.01-167.13-195.26-138.35-414.99l367.1-243.95,445.83,1545-1135.62-22.43-52.53-50.47Z"/>
  </g>
</svg>